<svg width="270" height="270" viewBox="0 0 270 270" fill="none" xmlns="http://www.w3.org/2000/svg">
<path fill-rule="evenodd" clip-rule="evenodd" d="M57.4444 194.811C56.4249 194.936 55.3866 195 54.3333 195C40.3421 195 29 183.658 29 169.667C29 155.675 40.3421 144.333 54.3333 144.333C55.9724 144.333 57.5751 144.489 59.1275 144.786C58.605 141.602 58.3333 138.333 58.3333 135C58.3333 101.863 85.1963 75 118.333 75C145.017 75 167.632 92.4181 175.428 116.504C178.895 115.524 182.553 115 186.333 115C208.425 115 226.333 132.909 226.333 155C226.333 158.706 225.829 162.295 224.886 165.7C225.217 165.678 225.552 165.667 225.889 165.667C233.989 165.667 240.556 172.233 240.556 180.333C240.556 188.434 233.989 195 225.889 195C225.439 195 224.995 194.98 224.556 194.94V195H57.4444V194.811Z" fill="white"/>
</svg>

