<svg width="270" height="270" viewBox="0 0 270 270" fill="none" xmlns="http://www.w3.org/2000/svg">
<path d="M100.831 159.305C123.496 156.923 139.939 136.638 137.56 113.997C135.18 91.3558 114.878 74.9327 92.214 77.3148C69.5499 79.6969 53.1061 99.9821 55.4858 122.623C57.8654 145.264 78.1674 161.687 100.831 159.305Z" fill="#F8E81C"/>
<path fill-rule="evenodd" clip-rule="evenodd" d="M86.2468 44.6205L90.3505 44.1892L98.0654 68.2472L83.7025 69.7568L86.2468 44.6205ZM121.657 48.5017L125.483 50.0475L121.001 74.9114L107.61 69.5013L121.657 48.5017ZM151.021 68.2698L153.729 71.384L138.446 91.5027L128.972 80.6032L151.021 68.2698ZM167.967 99.5695L168.895 103.59L145.957 114.179L142.708 100.108L167.967 99.5695ZM168.381 135.161L167.313 139.146L142.088 137.727L145.826 123.777L168.381 135.161ZM152.281 166.676L149.52 169.742L127.689 157.026L137.353 146.293L152.281 166.676ZM123.229 187.269L119.352 188.68L106.046 167.203L119.617 162.264L123.229 187.269ZM87.9206 191.984L83.8345 191.41L82.1689 166.2L96.4704 168.21L87.9206 191.984ZM54.4738 179.732L51.1356 177.307L61.5002 154.266L73.1841 162.754L54.4738 179.732ZM30.7092 153.504L28.8359 149.827L48.5312 134.003L55.0878 146.871L30.7092 153.504ZM21.7684 119.054L21.8404 114.928L46.6593 110.203L46.4072 124.642L21.7684 119.054ZM29.9078 84.398L31.9083 80.7891L56.0405 88.2686L49.0389 100.9L29.9078 84.398ZM53.0998 57.6553L56.5207 55.3479L74.627 72.9679L62.654 81.0438L53.0998 57.6553Z" fill="#F8E81C"/>
<path fill-rule="evenodd" clip-rule="evenodd" d="M219.126 198.931C219.847 198.977 220.573 199 221.305 199C239.99 199 255.137 183.821 255.137 165.097C255.137 147.443 241.671 132.94 224.47 131.341C218.77 107.048 197.005 88.9639 171.024 88.9639C140.702 88.9639 116.121 113.596 116.121 143.982C116.121 145.725 116.202 147.449 116.36 149.15C113.913 148.366 111.304 147.943 108.596 147.943C97.4243 147.943 87.932 155.15 84.4962 165.177C76.3554 166.431 70.1213 173.481 70.1213 181.989C70.1213 190.893 76.9471 198.198 85.6406 198.938V199H219.126V198.931Z" fill="white"/>
</svg>

